<?xml version="1.0" encoding="utf-8"?>
<!-- Generator: Adobe Illustrator 22.1.0, SVG Export Plug-In . SVG Version: 6.00 Build 0)  -->
<svg version="1.1" id="Layer_1" xmlns="http://www.w3.org/2000/svg" xmlns:xlink="http://www.w3.org/1999/xlink" x="0px" y="0px"
	 width="800px" height="800px" viewBox="0 0 800 800" style="enable-background:new 0 0 800 800;" xml:space="preserve">
<style type="text/css">
	.st0{fill:#FFFFFF;stroke:#000000;stroke-miterlimit:10;}
	.st1{fill:#16697A;stroke:#000000;stroke-miterlimit:10;}
</style>
<circle class="st0" cx="398.5" cy="233.5" r="102.5"/>
<rect x="160" y="365" class="st0" width="518" height="294"/>
<path class="st1" d="M700,266.7H582.3l-156.7-188c-12.8-14.2-34.6-15.3-48.8-2.5c-0.9,0.8-1.7,1.6-2.5,2.5l-156.7,188H100
	c-18.4,0-33.3,14.9-33.3,33.3v400c0,18.4,14.9,33.3,33.3,33.3h600c18.4,0,33.3-14.9,33.3-33.3V300
	C733.3,281.6,718.4,266.7,700,266.7z M400,152.1l95.5,114.6h-191L400,152.1z M533.3,600H266.7c-18.4,0-33.3-14.9-33.3-33.3
	s14.9-33.3,33.3-33.3h266.7c18.4,0,33.3,14.9,33.3,33.3S551.7,600,533.3,600z M600,466.7H200c-18.4,0-33.3-14.9-33.3-33.3
	S181.6,400,200,400h400c18.4,0,33.3,14.9,33.3,33.3S618.4,466.7,600,466.7z"/>
</svg>
